<mxfile host="app.diagrams.net" modified="2023-04-13T13:07:48.774Z" agent="Mozilla/5.0 (Windows NT 10.0; Win64; x64) AppleWebKit/537.36 (KHTML, like Gecko) Chrome/112.0.0.0 Safari/537.36 Edg/112.0.1722.39" etag="hhaqicZNI8Piub1BLp7-" version="21.1.7" type="github">
  <diagram name="第 1 页" id="Ro0rgoQAUIDa-VtvN_ky">
    <mxGraphModel dx="2017" dy="1124" grid="1" gridSize="10" guides="1" tooltips="1" connect="1" arrows="1" fold="1" page="1" pageScale="1" pageWidth="827" pageHeight="1169" math="0" shadow="0">
      <root>
        <mxCell id="0" />
        <mxCell id="1" parent="0" />
        <mxCell id="hu_LB2R3pbDdoo5qDDgQ-8" value="" style="edgeStyle=orthogonalEdgeStyle;rounded=0;orthogonalLoop=1;jettySize=auto;html=1;" edge="1" parent="1" source="hu_LB2R3pbDdoo5qDDgQ-1" target="hu_LB2R3pbDdoo5qDDgQ-3">
          <mxGeometry relative="1" as="geometry" />
        </mxCell>
        <mxCell id="hu_LB2R3pbDdoo5qDDgQ-1" value="开始" style="strokeWidth=2;html=1;shape=mxgraph.flowchart.terminator;whiteSpace=wrap;" vertex="1" parent="1">
          <mxGeometry x="310" y="40" width="100" height="60" as="geometry" />
        </mxCell>
        <mxCell id="hu_LB2R3pbDdoo5qDDgQ-2" value="结束" style="strokeWidth=2;html=1;shape=mxgraph.flowchart.terminator;whiteSpace=wrap;" vertex="1" parent="1">
          <mxGeometry x="310" y="640" width="100" height="60" as="geometry" />
        </mxCell>
        <mxCell id="hu_LB2R3pbDdoo5qDDgQ-9" value="" style="edgeStyle=orthogonalEdgeStyle;rounded=0;orthogonalLoop=1;jettySize=auto;html=1;" edge="1" parent="1" source="hu_LB2R3pbDdoo5qDDgQ-3" target="hu_LB2R3pbDdoo5qDDgQ-4">
          <mxGeometry relative="1" as="geometry" />
        </mxCell>
        <mxCell id="hu_LB2R3pbDdoo5qDDgQ-3" value="图像剪裁和缩放" style="rounded=1;whiteSpace=wrap;html=1;" vertex="1" parent="1">
          <mxGeometry x="300" y="140" width="120" height="60" as="geometry" />
        </mxCell>
        <mxCell id="hu_LB2R3pbDdoo5qDDgQ-10" value="" style="edgeStyle=orthogonalEdgeStyle;rounded=0;orthogonalLoop=1;jettySize=auto;html=1;" edge="1" parent="1" source="hu_LB2R3pbDdoo5qDDgQ-4" target="hu_LB2R3pbDdoo5qDDgQ-5">
          <mxGeometry relative="1" as="geometry" />
        </mxCell>
        <mxCell id="hu_LB2R3pbDdoo5qDDgQ-4" value="亮度和对比度调整" style="rounded=1;whiteSpace=wrap;html=1;" vertex="1" parent="1">
          <mxGeometry x="300" y="240" width="120" height="60" as="geometry" />
        </mxCell>
        <mxCell id="hu_LB2R3pbDdoo5qDDgQ-11" value="" style="edgeStyle=orthogonalEdgeStyle;rounded=0;orthogonalLoop=1;jettySize=auto;html=1;" edge="1" parent="1" source="hu_LB2R3pbDdoo5qDDgQ-5" target="hu_LB2R3pbDdoo5qDDgQ-6">
          <mxGeometry relative="1" as="geometry" />
        </mxCell>
        <mxCell id="hu_LB2R3pbDdoo5qDDgQ-5" value="灰度图转化" style="rounded=1;whiteSpace=wrap;html=1;" vertex="1" parent="1">
          <mxGeometry x="300" y="340" width="120" height="60" as="geometry" />
        </mxCell>
        <mxCell id="hu_LB2R3pbDdoo5qDDgQ-12" value="" style="edgeStyle=orthogonalEdgeStyle;rounded=0;orthogonalLoop=1;jettySize=auto;html=1;" edge="1" parent="1" source="hu_LB2R3pbDdoo5qDDgQ-6" target="hu_LB2R3pbDdoo5qDDgQ-7">
          <mxGeometry relative="1" as="geometry" />
        </mxCell>
        <mxCell id="hu_LB2R3pbDdoo5qDDgQ-6" value="像素归一化" style="rounded=1;whiteSpace=wrap;html=1;" vertex="1" parent="1">
          <mxGeometry x="300" y="440" width="120" height="60" as="geometry" />
        </mxCell>
        <mxCell id="hu_LB2R3pbDdoo5qDDgQ-13" value="" style="edgeStyle=orthogonalEdgeStyle;rounded=0;orthogonalLoop=1;jettySize=auto;html=1;" edge="1" parent="1" source="hu_LB2R3pbDdoo5qDDgQ-7" target="hu_LB2R3pbDdoo5qDDgQ-2">
          <mxGeometry relative="1" as="geometry" />
        </mxCell>
        <mxCell id="hu_LB2R3pbDdoo5qDDgQ-7" value="图像去噪" style="rounded=1;whiteSpace=wrap;html=1;" vertex="1" parent="1">
          <mxGeometry x="300" y="540" width="120" height="60" as="geometry" />
        </mxCell>
      </root>
    </mxGraphModel>
  </diagram>
</mxfile>
